<svg viewBox="0 0 720 155" xmlns="http://www.w3.org/2000/svg" font-family="-apple-system, BlinkMacSystemFont, 'Segoe UI', Helvetica, Arial, sans-serif">
  <style>
    @keyframes twinkle {
      0%, 100% { fill: #ebedf0; }
      40%      { fill: #9be9a8; }
      50%      { fill: #40c463; }
      60%      { fill: #9be9a8; }
    }
    .noise {
      animation: twinkle 7s ease-in-out infinite;
    }
  </style>

  <text x="14" y="14" font-size="14" fill="#24292f">1337 contributions</text>

  <text x="48" y="38" font-size="10" fill="#57606a">Jan</text>
  <text x="108" y="38" font-size="10" fill="#57606a">Feb</text>
  <text x="162" y="38" font-size="10" fill="#57606a">Mar</text>
  <text x="222" y="38" font-size="10" fill="#57606a">Apr</text>
  <text x="282" y="38" font-size="10" fill="#57606a">May</text>
  <text x="340" y="38" font-size="10" fill="#57606a">Jun</text>
  <text x="392" y="38" font-size="10" fill="#57606a">Jul</text>
  <text x="448" y="38" font-size="10" fill="#57606a">Aug</text>
  <text x="510" y="38" font-size="10" fill="#57606a">Sep</text>
  <text x="566" y="38" font-size="10" fill="#57606a">Oct</text>
  <text x="624" y="38" font-size="10" fill="#57606a">Nov</text>
  <text x="686" y="38" font-size="10" fill="#57606a">Dec</text>

  <text x="14" y="68" font-size="10" fill="#57606a">Mon</text>
  <text x="14" y="94" font-size="10" fill="#57606a">Wed</text>
  <text x="14" y="120" font-size="10" fill="#57606a">Fri</text>

    <rect x="44" y="44" width="10" height="10" rx="2" ry="2" fill="#ebedf0"/>
    <rect x="44" y="57" width="10" height="10" rx="2" ry="2" fill="#ebedf0" class="noise" style="animation-delay:5.89s;animation-duration:7.7s"/>
    <rect x="44" y="70" width="10" height="10" rx="2" ry="2" fill="#ebedf0"/>
    <rect x="44" y="83" width="10" height="10" rx="2" ry="2" fill="#ebedf0" class="noise" style="animation-delay:1.75s;animation-duration:7.0s"/>
    <rect x="44" y="96" width="10" height="10" rx="2" ry="2" fill="#ebedf0" class="noise" style="animation-delay:1.59s;animation-duration:7.6s"/>
    <rect x="44" y="109" width="10" height="10" rx="2" ry="2" fill="#ebedf0"/>
    <rect x="44" y="122" width="10" height="10" rx="2" ry="2" fill="#ebedf0"/>
    <rect x="57" y="44" width="10" height="10" rx="2" ry="2" fill="#ebedf0"/>
    <rect x="57" y="57" width="10" height="10" rx="2" ry="2" fill="#ebedf0"/>
    <rect x="57" y="70" width="10" height="10" rx="2" ry="2" fill="#ebedf0" class="noise" style="animation-delay:6.78s;animation-duration:7.4s"/>
    <rect x="57" y="83" width="10" height="10" rx="2" ry="2" fill="#ebedf0"/>
    <rect x="57" y="96" width="10" height="10" rx="2" ry="2" fill="#ebedf0"/>
    <rect x="57" y="109" width="10" height="10" rx="2" ry="2" fill="#ebedf0"/>
    <rect x="57" y="122" width="10" height="10" rx="2" ry="2" fill="#ebedf0"/>
    <rect x="70" y="44" width="10" height="10" rx="2" ry="2" fill="#ebedf0" class="noise" style="animation-delay:2.32s;animation-duration:5.3s"/>
    <rect x="70" y="57" width="10" height="10" rx="2" ry="2" fill="#ebedf0" class="noise" style="animation-delay:0.81s;animation-duration:6.1s"/>
    <rect x="70" y="70" width="10" height="10" rx="2" ry="2" fill="#ebedf0"/>
    <rect x="70" y="83" width="10" height="10" rx="2" ry="2" fill="#ebedf0" class="noise" style="animation-delay:2.14s;animation-duration:8.7s"/>
    <rect x="70" y="96" width="10" height="10" rx="2" ry="2" fill="#ebedf0"/>
    <rect x="70" y="109" width="10" height="10" rx="2" ry="2" fill="#ebedf0"/>
    <rect x="70" y="122" width="10" height="10" rx="2" ry="2" fill="#ebedf0"/>
    <rect x="83" y="44" width="10" height="10" rx="2" ry="2" fill="#ebedf0"/>
    <rect x="83" y="57" width="10" height="10" rx="2" ry="2" fill="#216e39"/>
    <rect x="83" y="70" width="10" height="10" rx="2" ry="2" fill="#216e39"/>
    <rect x="83" y="83" width="10" height="10" rx="2" ry="2" fill="#216e39"/>
    <rect x="83" y="96" width="10" height="10" rx="2" ry="2" fill="#216e39"/>
    <rect x="83" y="109" width="10" height="10" rx="2" ry="2" fill="#216e39"/>
    <rect x="83" y="122" width="10" height="10" rx="2" ry="2" fill="#ebedf0" class="noise" style="animation-delay:0.26s;animation-duration:6.3s"/>
    <rect x="96" y="44" width="10" height="10" rx="2" ry="2" fill="#ebedf0"/>
    <rect x="96" y="57" width="10" height="10" rx="2" ry="2" fill="#ebedf0"/>
    <rect x="96" y="70" width="10" height="10" rx="2" ry="2" fill="#ebedf0"/>
    <rect x="96" y="83" width="10" height="10" rx="2" ry="2" fill="#216e39"/>
    <rect x="96" y="96" width="10" height="10" rx="2" ry="2" fill="#ebedf0"/>
    <rect x="96" y="109" width="10" height="10" rx="2" ry="2" fill="#ebedf0"/>
    <rect x="96" y="122" width="10" height="10" rx="2" ry="2" fill="#ebedf0"/>
    <rect x="109" y="44" width="10" height="10" rx="2" ry="2" fill="#ebedf0"/>
    <rect x="109" y="57" width="10" height="10" rx="2" ry="2" fill="#216e39"/>
    <rect x="109" y="70" width="10" height="10" rx="2" ry="2" fill="#216e39"/>
    <rect x="109" y="83" width="10" height="10" rx="2" ry="2" fill="#216e39"/>
    <rect x="109" y="96" width="10" height="10" rx="2" ry="2" fill="#216e39"/>
    <rect x="109" y="109" width="10" height="10" rx="2" ry="2" fill="#216e39"/>
    <rect x="109" y="122" width="10" height="10" rx="2" ry="2" fill="#ebedf0" class="noise" style="animation-delay:5.02s;animation-duration:8.2s"/>
    <rect x="122" y="44" width="10" height="10" rx="2" ry="2" fill="#ebedf0"/>
    <rect x="122" y="57" width="10" height="10" rx="2" ry="2" fill="#ebedf0"/>
    <rect x="122" y="70" width="10" height="10" rx="2" ry="2" fill="#ebedf0"/>
    <rect x="122" y="83" width="10" height="10" rx="2" ry="2" fill="#ebedf0"/>
    <rect x="122" y="96" width="10" height="10" rx="2" ry="2" fill="#ebedf0"/>
    <rect x="122" y="109" width="10" height="10" rx="2" ry="2" fill="#ebedf0"/>
    <rect x="122" y="122" width="10" height="10" rx="2" ry="2" fill="#ebedf0"/>
    <rect x="135" y="44" width="10" height="10" rx="2" ry="2" fill="#ebedf0"/>
    <rect x="135" y="57" width="10" height="10" rx="2" ry="2" fill="#216e39"/>
    <rect x="135" y="70" width="10" height="10" rx="2" ry="2" fill="#216e39"/>
    <rect x="135" y="83" width="10" height="10" rx="2" ry="2" fill="#216e39"/>
    <rect x="135" y="96" width="10" height="10" rx="2" ry="2" fill="#216e39"/>
    <rect x="135" y="109" width="10" height="10" rx="2" ry="2" fill="#216e39"/>
    <rect x="135" y="122" width="10" height="10" rx="2" ry="2" fill="#ebedf0"/>
    <rect x="148" y="44" width="10" height="10" rx="2" ry="2" fill="#ebedf0"/>
    <rect x="148" y="57" width="10" height="10" rx="2" ry="2" fill="#216e39"/>
    <rect x="148" y="70" width="10" height="10" rx="2" ry="2" fill="#ebedf0"/>
    <rect x="148" y="83" width="10" height="10" rx="2" ry="2" fill="#216e39"/>
    <rect x="148" y="96" width="10" height="10" rx="2" ry="2" fill="#ebedf0" class="noise" style="animation-delay:7.43s;animation-duration:8.5s"/>
    <rect x="148" y="109" width="10" height="10" rx="2" ry="2" fill="#216e39"/>
    <rect x="148" y="122" width="10" height="10" rx="2" ry="2" fill="#ebedf0"/>
    <rect x="161" y="44" width="10" height="10" rx="2" ry="2" fill="#ebedf0"/>
    <rect x="161" y="57" width="10" height="10" rx="2" ry="2" fill="#216e39"/>
    <rect x="161" y="70" width="10" height="10" rx="2" ry="2" fill="#ebedf0"/>
    <rect x="161" y="83" width="10" height="10" rx="2" ry="2" fill="#ebedf0"/>
    <rect x="161" y="96" width="10" height="10" rx="2" ry="2" fill="#ebedf0"/>
    <rect x="161" y="109" width="10" height="10" rx="2" ry="2" fill="#216e39"/>
    <rect x="161" y="122" width="10" height="10" rx="2" ry="2" fill="#ebedf0"/>
    <rect x="174" y="44" width="10" height="10" rx="2" ry="2" fill="#ebedf0"/>
    <rect x="174" y="57" width="10" height="10" rx="2" ry="2" fill="#ebedf0"/>
    <rect x="174" y="70" width="10" height="10" rx="2" ry="2" fill="#ebedf0"/>
    <rect x="174" y="83" width="10" height="10" rx="2" ry="2" fill="#ebedf0"/>
    <rect x="174" y="96" width="10" height="10" rx="2" ry="2" fill="#ebedf0" class="noise" style="animation-delay:0.57s;animation-duration:7.5s"/>
    <rect x="174" y="109" width="10" height="10" rx="2" ry="2" fill="#ebedf0" class="noise" style="animation-delay:7.24s;animation-duration:8.4s"/>
    <rect x="174" y="122" width="10" height="10" rx="2" ry="2" fill="#ebedf0" class="noise" style="animation-delay:1.9s;animation-duration:7.7s"/>
    <rect x="187" y="44" width="10" height="10" rx="2" ry="2" fill="#ebedf0" class="noise" style="animation-delay:1.06s;animation-duration:8.7s"/>
    <rect x="187" y="57" width="10" height="10" rx="2" ry="2" fill="#216e39"/>
    <rect x="187" y="70" width="10" height="10" rx="2" ry="2" fill="#216e39"/>
    <rect x="187" y="83" width="10" height="10" rx="2" ry="2" fill="#216e39"/>
    <rect x="187" y="96" width="10" height="10" rx="2" ry="2" fill="#216e39"/>
    <rect x="187" y="109" width="10" height="10" rx="2" ry="2" fill="#216e39"/>
    <rect x="187" y="122" width="10" height="10" rx="2" ry="2" fill="#ebedf0"/>
    <rect x="200" y="44" width="10" height="10" rx="2" ry="2" fill="#ebedf0"/>
    <rect x="200" y="57" width="10" height="10" rx="2" ry="2" fill="#ebedf0"/>
    <rect x="200" y="70" width="10" height="10" rx="2" ry="2" fill="#ebedf0"/>
    <rect x="200" y="83" width="10" height="10" rx="2" ry="2" fill="#ebedf0" class="noise" style="animation-delay:3.22s;animation-duration:6.4s"/>
    <rect x="200" y="96" width="10" height="10" rx="2" ry="2" fill="#ebedf0"/>
    <rect x="200" y="109" width="10" height="10" rx="2" ry="2" fill="#216e39"/>
    <rect x="200" y="122" width="10" height="10" rx="2" ry="2" fill="#ebedf0"/>
    <rect x="213" y="44" width="10" height="10" rx="2" ry="2" fill="#ebedf0" class="noise" style="animation-delay:7.39s;animation-duration:6.8s"/>
    <rect x="213" y="57" width="10" height="10" rx="2" ry="2" fill="#ebedf0"/>
    <rect x="213" y="70" width="10" height="10" rx="2" ry="2" fill="#ebedf0"/>
    <rect x="213" y="83" width="10" height="10" rx="2" ry="2" fill="#ebedf0"/>
    <rect x="213" y="96" width="10" height="10" rx="2" ry="2" fill="#ebedf0"/>
    <rect x="213" y="109" width="10" height="10" rx="2" ry="2" fill="#216e39"/>
    <rect x="213" y="122" width="10" height="10" rx="2" ry="2" fill="#ebedf0" class="noise" style="animation-delay:3.03s;animation-duration:8.9s"/>
    <rect x="226" y="44" width="10" height="10" rx="2" ry="2" fill="#ebedf0"/>
    <rect x="226" y="57" width="10" height="10" rx="2" ry="2" fill="#ebedf0"/>
    <rect x="226" y="70" width="10" height="10" rx="2" ry="2" fill="#ebedf0"/>
    <rect x="226" y="83" width="10" height="10" rx="2" ry="2" fill="#ebedf0"/>
    <rect x="226" y="96" width="10" height="10" rx="2" ry="2" fill="#ebedf0"/>
    <rect x="226" y="109" width="10" height="10" rx="2" ry="2" fill="#ebedf0"/>
    <rect x="226" y="122" width="10" height="10" rx="2" ry="2" fill="#ebedf0" class="noise" style="animation-delay:7.69s;animation-duration:5.3s"/>
    <rect x="239" y="44" width="10" height="10" rx="2" ry="2" fill="#ebedf0" class="noise" style="animation-delay:4.76s;animation-duration:7.7s"/>
    <rect x="239" y="57" width="10" height="10" rx="2" ry="2" fill="#216e39"/>
    <rect x="239" y="70" width="10" height="10" rx="2" ry="2" fill="#216e39"/>
    <rect x="239" y="83" width="10" height="10" rx="2" ry="2" fill="#216e39"/>
    <rect x="239" y="96" width="10" height="10" rx="2" ry="2" fill="#216e39"/>
    <rect x="239" y="109" width="10" height="10" rx="2" ry="2" fill="#216e39"/>
    <rect x="239" y="122" width="10" height="10" rx="2" ry="2" fill="#ebedf0" class="noise" style="animation-delay:0.96s;animation-duration:8.6s"/>
    <rect x="252" y="44" width="10" height="10" rx="2" ry="2" fill="#ebedf0" class="noise" style="animation-delay:4.76s;animation-duration:7.5s"/>
    <rect x="252" y="57" width="10" height="10" rx="2" ry="2" fill="#ebedf0"/>
    <rect x="252" y="70" width="10" height="10" rx="2" ry="2" fill="#ebedf0"/>
    <rect x="252" y="83" width="10" height="10" rx="2" ry="2" fill="#ebedf0" class="noise" style="animation-delay:3.17s;animation-duration:7.7s"/>
    <rect x="252" y="96" width="10" height="10" rx="2" ry="2" fill="#ebedf0"/>
    <rect x="252" y="109" width="10" height="10" rx="2" ry="2" fill="#216e39"/>
    <rect x="252" y="122" width="10" height="10" rx="2" ry="2" fill="#ebedf0" class="noise" style="animation-delay:3.67s;animation-duration:9.0s"/>
    <rect x="265" y="44" width="10" height="10" rx="2" ry="2" fill="#ebedf0"/>
    <rect x="265" y="57" width="10" height="10" rx="2" ry="2" fill="#ebedf0"/>
    <rect x="265" y="70" width="10" height="10" rx="2" ry="2" fill="#ebedf0"/>
    <rect x="265" y="83" width="10" height="10" rx="2" ry="2" fill="#ebedf0"/>
    <rect x="265" y="96" width="10" height="10" rx="2" ry="2" fill="#ebedf0"/>
    <rect x="265" y="109" width="10" height="10" rx="2" ry="2" fill="#216e39"/>
    <rect x="265" y="122" width="10" height="10" rx="2" ry="2" fill="#ebedf0"/>
    <rect x="278" y="44" width="10" height="10" rx="2" ry="2" fill="#ebedf0"/>
    <rect x="278" y="57" width="10" height="10" rx="2" ry="2" fill="#ebedf0" class="noise" style="animation-delay:4.43s;animation-duration:6.1s"/>
    <rect x="278" y="70" width="10" height="10" rx="2" ry="2" fill="#ebedf0"/>
    <rect x="278" y="83" width="10" height="10" rx="2" ry="2" fill="#ebedf0"/>
    <rect x="278" y="96" width="10" height="10" rx="2" ry="2" fill="#ebedf0"/>
    <rect x="278" y="109" width="10" height="10" rx="2" ry="2" fill="#ebedf0"/>
    <rect x="278" y="122" width="10" height="10" rx="2" ry="2" fill="#ebedf0"/>
    <rect x="291" y="44" width="10" height="10" rx="2" ry="2" fill="#ebedf0"/>
    <rect x="291" y="57" width="10" height="10" rx="2" ry="2" fill="#216e39"/>
    <rect x="291" y="70" width="10" height="10" rx="2" ry="2" fill="#216e39"/>
    <rect x="291" y="83" width="10" height="10" rx="2" ry="2" fill="#216e39"/>
    <rect x="291" y="96" width="10" height="10" rx="2" ry="2" fill="#216e39"/>
    <rect x="291" y="109" width="10" height="10" rx="2" ry="2" fill="#216e39"/>
    <rect x="291" y="122" width="10" height="10" rx="2" ry="2" fill="#ebedf0" class="noise" style="animation-delay:0.6s;animation-duration:8.5s"/>
    <rect x="304" y="44" width="10" height="10" rx="2" ry="2" fill="#ebedf0"/>
    <rect x="304" y="57" width="10" height="10" rx="2" ry="2" fill="#216e39"/>
    <rect x="304" y="70" width="10" height="10" rx="2" ry="2" fill="#ebedf0"/>
    <rect x="304" y="83" width="10" height="10" rx="2" ry="2" fill="#ebedf0"/>
    <rect x="304" y="96" width="10" height="10" rx="2" ry="2" fill="#ebedf0"/>
    <rect x="304" y="109" width="10" height="10" rx="2" ry="2" fill="#216e39"/>
    <rect x="304" y="122" width="10" height="10" rx="2" ry="2" fill="#ebedf0" class="noise" style="animation-delay:0.82s;animation-duration:8.1s"/>
    <rect x="317" y="44" width="10" height="10" rx="2" ry="2" fill="#ebedf0"/>
    <rect x="317" y="57" width="10" height="10" rx="2" ry="2" fill="#216e39"/>
    <rect x="317" y="70" width="10" height="10" rx="2" ry="2" fill="#216e39"/>
    <rect x="317" y="83" width="10" height="10" rx="2" ry="2" fill="#216e39"/>
    <rect x="317" y="96" width="10" height="10" rx="2" ry="2" fill="#216e39"/>
    <rect x="317" y="109" width="10" height="10" rx="2" ry="2" fill="#216e39"/>
    <rect x="317" y="122" width="10" height="10" rx="2" ry="2" fill="#ebedf0" class="noise" style="animation-delay:7.44s;animation-duration:8.5s"/>
    <rect x="330" y="44" width="10" height="10" rx="2" ry="2" fill="#ebedf0"/>
    <rect x="330" y="57" width="10" height="10" rx="2" ry="2" fill="#ebedf0" class="noise" style="animation-delay:5.89s;animation-duration:6.3s"/>
    <rect x="330" y="70" width="10" height="10" rx="2" ry="2" fill="#ebedf0"/>
    <rect x="330" y="83" width="10" height="10" rx="2" ry="2" fill="#ebedf0"/>
    <rect x="330" y="96" width="10" height="10" rx="2" ry="2" fill="#ebedf0" class="noise" style="animation-delay:6.98s;animation-duration:8.4s"/>
    <rect x="330" y="109" width="10" height="10" rx="2" ry="2" fill="#ebedf0" class="noise" style="animation-delay:6.53s;animation-duration:6.8s"/>
    <rect x="330" y="122" width="10" height="10" rx="2" ry="2" fill="#ebedf0"/>
    <rect x="343" y="44" width="10" height="10" rx="2" ry="2" fill="#ebedf0" class="noise" style="animation-delay:1.55s;animation-duration:6.3s"/>
    <rect x="343" y="57" width="10" height="10" rx="2" ry="2" fill="#ebedf0"/>
    <rect x="343" y="70" width="10" height="10" rx="2" ry="2" fill="#ebedf0"/>
    <rect x="343" y="83" width="10" height="10" rx="2" ry="2" fill="#ebedf0"/>
    <rect x="343" y="96" width="10" height="10" rx="2" ry="2" fill="#ebedf0"/>
    <rect x="343" y="109" width="10" height="10" rx="2" ry="2" fill="#ebedf0"/>
    <rect x="343" y="122" width="10" height="10" rx="2" ry="2" fill="#ebedf0"/>
    <rect x="356" y="44" width="10" height="10" rx="2" ry="2" fill="#ebedf0"/>
    <rect x="356" y="57" width="10" height="10" rx="2" ry="2" fill="#ebedf0"/>
    <rect x="356" y="70" width="10" height="10" rx="2" ry="2" fill="#ebedf0"/>
    <rect x="356" y="83" width="10" height="10" rx="2" ry="2" fill="#ebedf0"/>
    <rect x="356" y="96" width="10" height="10" rx="2" ry="2" fill="#ebedf0" class="noise" style="animation-delay:5.31s;animation-duration:6.3s"/>
    <rect x="356" y="109" width="10" height="10" rx="2" ry="2" fill="#ebedf0"/>
    <rect x="356" y="122" width="10" height="10" rx="2" ry="2" fill="#ebedf0"/>
    <rect x="369" y="44" width="10" height="10" rx="2" ry="2" fill="#ebedf0"/>
    <rect x="369" y="57" width="10" height="10" rx="2" ry="2" fill="#216e39"/>
    <rect x="369" y="70" width="10" height="10" rx="2" ry="2" fill="#216e39"/>
    <rect x="369" y="83" width="10" height="10" rx="2" ry="2" fill="#216e39"/>
    <rect x="369" y="96" width="10" height="10" rx="2" ry="2" fill="#216e39"/>
    <rect x="369" y="109" width="10" height="10" rx="2" ry="2" fill="#216e39"/>
    <rect x="369" y="122" width="10" height="10" rx="2" ry="2" fill="#ebedf0"/>
    <rect x="382" y="44" width="10" height="10" rx="2" ry="2" fill="#ebedf0"/>
    <rect x="382" y="57" width="10" height="10" rx="2" ry="2" fill="#ebedf0"/>
    <rect x="382" y="70" width="10" height="10" rx="2" ry="2" fill="#ebedf0"/>
    <rect x="382" y="83" width="10" height="10" rx="2" ry="2" fill="#ebedf0"/>
    <rect x="382" y="96" width="10" height="10" rx="2" ry="2" fill="#ebedf0"/>
    <rect x="382" y="109" width="10" height="10" rx="2" ry="2" fill="#ebedf0" class="noise" style="animation-delay:0.68s;animation-duration:7.1s"/>
    <rect x="382" y="122" width="10" height="10" rx="2" ry="2" fill="#ebedf0"/>
    <rect x="395" y="44" width="10" height="10" rx="2" ry="2" fill="#ebedf0"/>
    <rect x="395" y="57" width="10" height="10" rx="2" ry="2" fill="#216e39"/>
    <rect x="395" y="70" width="10" height="10" rx="2" ry="2" fill="#216e39"/>
    <rect x="395" y="83" width="10" height="10" rx="2" ry="2" fill="#ebedf0" class="noise" style="animation-delay:0.2s;animation-duration:6.0s"/>
    <rect x="395" y="96" width="10" height="10" rx="2" ry="2" fill="#ebedf0"/>
    <rect x="395" y="109" width="10" height="10" rx="2" ry="2" fill="#ebedf0"/>
    <rect x="395" y="122" width="10" height="10" rx="2" ry="2" fill="#ebedf0"/>
    <rect x="408" y="44" width="10" height="10" rx="2" ry="2" fill="#ebedf0"/>
    <rect x="408" y="57" width="10" height="10" rx="2" ry="2" fill="#ebedf0"/>
    <rect x="408" y="70" width="10" height="10" rx="2" ry="2" fill="#ebedf0" class="noise" style="animation-delay:7.66s;animation-duration:7.1s"/>
    <rect x="408" y="83" width="10" height="10" rx="2" ry="2" fill="#ebedf0" class="noise" style="animation-delay:1.99s;animation-duration:8.4s"/>
    <rect x="408" y="96" width="10" height="10" rx="2" ry="2" fill="#ebedf0"/>
    <rect x="408" y="109" width="10" height="10" rx="2" ry="2" fill="#ebedf0"/>
    <rect x="408" y="122" width="10" height="10" rx="2" ry="2" fill="#ebedf0"/>
    <rect x="421" y="44" width="10" height="10" rx="2" ry="2" fill="#ebedf0"/>
    <rect x="421" y="57" width="10" height="10" rx="2" ry="2" fill="#216e39"/>
    <rect x="421" y="70" width="10" height="10" rx="2" ry="2" fill="#216e39"/>
    <rect x="421" y="83" width="10" height="10" rx="2" ry="2" fill="#216e39"/>
    <rect x="421" y="96" width="10" height="10" rx="2" ry="2" fill="#216e39"/>
    <rect x="421" y="109" width="10" height="10" rx="2" ry="2" fill="#216e39"/>
    <rect x="421" y="122" width="10" height="10" rx="2" ry="2" fill="#ebedf0"/>
    <rect x="434" y="44" width="10" height="10" rx="2" ry="2" fill="#ebedf0"/>
    <rect x="434" y="57" width="10" height="10" rx="2" ry="2" fill="#ebedf0"/>
    <rect x="434" y="70" width="10" height="10" rx="2" ry="2" fill="#216e39"/>
    <rect x="434" y="83" width="10" height="10" rx="2" ry="2" fill="#ebedf0"/>
    <rect x="434" y="96" width="10" height="10" rx="2" ry="2" fill="#ebedf0"/>
    <rect x="434" y="109" width="10" height="10" rx="2" ry="2" fill="#ebedf0" class="noise" style="animation-delay:1.85s;animation-duration:7.8s"/>
    <rect x="434" y="122" width="10" height="10" rx="2" ry="2" fill="#ebedf0"/>
    <rect x="447" y="44" width="10" height="10" rx="2" ry="2" fill="#ebedf0"/>
    <rect x="447" y="57" width="10" height="10" rx="2" ry="2" fill="#ebedf0"/>
    <rect x="447" y="70" width="10" height="10" rx="2" ry="2" fill="#ebedf0"/>
    <rect x="447" y="83" width="10" height="10" rx="2" ry="2" fill="#216e39"/>
    <rect x="447" y="96" width="10" height="10" rx="2" ry="2" fill="#ebedf0"/>
    <rect x="447" y="109" width="10" height="10" rx="2" ry="2" fill="#ebedf0"/>
    <rect x="447" y="122" width="10" height="10" rx="2" ry="2" fill="#ebedf0"/>
    <rect x="460" y="44" width="10" height="10" rx="2" ry="2" fill="#ebedf0"/>
    <rect x="460" y="57" width="10" height="10" rx="2" ry="2" fill="#ebedf0"/>
    <rect x="460" y="70" width="10" height="10" rx="2" ry="2" fill="#216e39"/>
    <rect x="460" y="83" width="10" height="10" rx="2" ry="2" fill="#ebedf0"/>
    <rect x="460" y="96" width="10" height="10" rx="2" ry="2" fill="#ebedf0"/>
    <rect x="460" y="109" width="10" height="10" rx="2" ry="2" fill="#ebedf0" class="noise" style="animation-delay:3.15s;animation-duration:7.3s"/>
    <rect x="460" y="122" width="10" height="10" rx="2" ry="2" fill="#ebedf0" class="noise" style="animation-delay:5.14s;animation-duration:5.5s"/>
    <rect x="473" y="44" width="10" height="10" rx="2" ry="2" fill="#ebedf0"/>
    <rect x="473" y="57" width="10" height="10" rx="2" ry="2" fill="#216e39"/>
    <rect x="473" y="70" width="10" height="10" rx="2" ry="2" fill="#216e39"/>
    <rect x="473" y="83" width="10" height="10" rx="2" ry="2" fill="#216e39"/>
    <rect x="473" y="96" width="10" height="10" rx="2" ry="2" fill="#216e39"/>
    <rect x="473" y="109" width="10" height="10" rx="2" ry="2" fill="#216e39"/>
    <rect x="473" y="122" width="10" height="10" rx="2" ry="2" fill="#ebedf0" class="noise" style="animation-delay:2.61s;animation-duration:8.0s"/>
    <rect x="486" y="44" width="10" height="10" rx="2" ry="2" fill="#ebedf0"/>
    <rect x="486" y="57" width="10" height="10" rx="2" ry="2" fill="#ebedf0"/>
    <rect x="486" y="70" width="10" height="10" rx="2" ry="2" fill="#ebedf0"/>
    <rect x="486" y="83" width="10" height="10" rx="2" ry="2" fill="#ebedf0"/>
    <rect x="486" y="96" width="10" height="10" rx="2" ry="2" fill="#ebedf0"/>
    <rect x="486" y="109" width="10" height="10" rx="2" ry="2" fill="#ebedf0" class="noise" style="animation-delay:1.22s;animation-duration:5.5s"/>
    <rect x="486" y="122" width="10" height="10" rx="2" ry="2" fill="#ebedf0"/>
    <rect x="499" y="44" width="10" height="10" rx="2" ry="2" fill="#ebedf0"/>
    <rect x="499" y="57" width="10" height="10" rx="2" ry="2" fill="#ebedf0"/>
    <rect x="499" y="70" width="10" height="10" rx="2" ry="2" fill="#ebedf0"/>
    <rect x="499" y="83" width="10" height="10" rx="2" ry="2" fill="#ebedf0" class="noise" style="animation-delay:2.5s;animation-duration:7.7s"/>
    <rect x="499" y="96" width="10" height="10" rx="2" ry="2" fill="#ebedf0"/>
    <rect x="499" y="109" width="10" height="10" rx="2" ry="2" fill="#ebedf0" class="noise" style="animation-delay:5.52s;animation-duration:7.5s"/>
    <rect x="499" y="122" width="10" height="10" rx="2" ry="2" fill="#ebedf0" class="noise" style="animation-delay:6.18s;animation-duration:8.4s"/>
    <rect x="512" y="44" width="10" height="10" rx="2" ry="2" fill="#ebedf0"/>
    <rect x="512" y="57" width="10" height="10" rx="2" ry="2" fill="#ebedf0"/>
    <rect x="512" y="70" width="10" height="10" rx="2" ry="2" fill="#ebedf0"/>
    <rect x="512" y="83" width="10" height="10" rx="2" ry="2" fill="#ebedf0"/>
    <rect x="512" y="96" width="10" height="10" rx="2" ry="2" fill="#ebedf0"/>
    <rect x="512" y="109" width="10" height="10" rx="2" ry="2" fill="#ebedf0"/>
    <rect x="512" y="122" width="10" height="10" rx="2" ry="2" fill="#ebedf0"/>
    <rect x="525" y="44" width="10" height="10" rx="2" ry="2" fill="#ebedf0"/>
    <rect x="525" y="57" width="10" height="10" rx="2" ry="2" fill="#216e39"/>
    <rect x="525" y="70" width="10" height="10" rx="2" ry="2" fill="#216e39"/>
    <rect x="525" y="83" width="10" height="10" rx="2" ry="2" fill="#216e39"/>
    <rect x="525" y="96" width="10" height="10" rx="2" ry="2" fill="#216e39"/>
    <rect x="525" y="109" width="10" height="10" rx="2" ry="2" fill="#216e39"/>
    <rect x="525" y="122" width="10" height="10" rx="2" ry="2" fill="#ebedf0"/>
    <rect x="538" y="44" width="10" height="10" rx="2" ry="2" fill="#ebedf0"/>
    <rect x="538" y="57" width="10" height="10" rx="2" ry="2" fill="#216e39"/>
    <rect x="538" y="70" width="10" height="10" rx="2" ry="2" fill="#ebedf0" class="noise" style="animation-delay:3.72s;animation-duration:7.4s"/>
    <rect x="538" y="83" width="10" height="10" rx="2" ry="2" fill="#ebedf0"/>
    <rect x="538" y="96" width="10" height="10" rx="2" ry="2" fill="#ebedf0" class="noise" style="animation-delay:1.7s;animation-duration:8.2s"/>
    <rect x="538" y="109" width="10" height="10" rx="2" ry="2" fill="#216e39"/>
    <rect x="538" y="122" width="10" height="10" rx="2" ry="2" fill="#ebedf0"/>
    <rect x="551" y="44" width="10" height="10" rx="2" ry="2" fill="#ebedf0"/>
    <rect x="551" y="57" width="10" height="10" rx="2" ry="2" fill="#216e39"/>
    <rect x="551" y="70" width="10" height="10" rx="2" ry="2" fill="#216e39"/>
    <rect x="551" y="83" width="10" height="10" rx="2" ry="2" fill="#216e39"/>
    <rect x="551" y="96" width="10" height="10" rx="2" ry="2" fill="#216e39"/>
    <rect x="551" y="109" width="10" height="10" rx="2" ry="2" fill="#216e39"/>
    <rect x="551" y="122" width="10" height="10" rx="2" ry="2" fill="#ebedf0" class="noise" style="animation-delay:5.76s;animation-duration:7.0s"/>
    <rect x="564" y="44" width="10" height="10" rx="2" ry="2" fill="#ebedf0"/>
    <rect x="564" y="57" width="10" height="10" rx="2" ry="2" fill="#ebedf0"/>
    <rect x="564" y="70" width="10" height="10" rx="2" ry="2" fill="#ebedf0" class="noise" style="animation-delay:5.53s;animation-duration:6.2s"/>
    <rect x="564" y="83" width="10" height="10" rx="2" ry="2" fill="#ebedf0"/>
    <rect x="564" y="96" width="10" height="10" rx="2" ry="2" fill="#ebedf0"/>
    <rect x="564" y="109" width="10" height="10" rx="2" ry="2" fill="#ebedf0"/>
    <rect x="564" y="122" width="10" height="10" rx="2" ry="2" fill="#ebedf0" class="noise" style="animation-delay:1.54s;animation-duration:5.5s"/>
    <rect x="577" y="44" width="10" height="10" rx="2" ry="2" fill="#ebedf0"/>
    <rect x="577" y="57" width="10" height="10" rx="2" ry="2" fill="#216e39"/>
    <rect x="577" y="70" width="10" height="10" rx="2" ry="2" fill="#ebedf0" class="noise" style="animation-delay:3.87s;animation-duration:7.9s"/>
    <rect x="577" y="83" width="10" height="10" rx="2" ry="2" fill="#ebedf0"/>
    <rect x="577" y="96" width="10" height="10" rx="2" ry="2" fill="#216e39"/>
    <rect x="577" y="109" width="10" height="10" rx="2" ry="2" fill="#216e39"/>
    <rect x="577" y="122" width="10" height="10" rx="2" ry="2" fill="#ebedf0" class="noise" style="animation-delay:1.55s;animation-duration:5.9s"/>
    <rect x="590" y="44" width="10" height="10" rx="2" ry="2" fill="#ebedf0" class="noise" style="animation-delay:0.11s;animation-duration:7.1s"/>
    <rect x="590" y="57" width="10" height="10" rx="2" ry="2" fill="#216e39"/>
    <rect x="590" y="70" width="10" height="10" rx="2" ry="2" fill="#ebedf0"/>
    <rect x="590" y="83" width="10" height="10" rx="2" ry="2" fill="#216e39"/>
    <rect x="590" y="96" width="10" height="10" rx="2" ry="2" fill="#ebedf0"/>
    <rect x="590" y="109" width="10" height="10" rx="2" ry="2" fill="#216e39"/>
    <rect x="590" y="122" width="10" height="10" rx="2" ry="2" fill="#ebedf0"/>
    <rect x="603" y="44" width="10" height="10" rx="2" ry="2" fill="#ebedf0"/>
    <rect x="603" y="57" width="10" height="10" rx="2" ry="2" fill="#216e39"/>
    <rect x="603" y="70" width="10" height="10" rx="2" ry="2" fill="#216e39"/>
    <rect x="603" y="83" width="10" height="10" rx="2" ry="2" fill="#ebedf0" class="noise" style="animation-delay:7.53s;animation-duration:6.9s"/>
    <rect x="603" y="96" width="10" height="10" rx="2" ry="2" fill="#ebedf0"/>
    <rect x="603" y="109" width="10" height="10" rx="2" ry="2" fill="#216e39"/>
    <rect x="603" y="122" width="10" height="10" rx="2" ry="2" fill="#ebedf0"/>
    <rect x="616" y="44" width="10" height="10" rx="2" ry="2" fill="#ebedf0"/>
    <rect x="616" y="57" width="10" height="10" rx="2" ry="2" fill="#ebedf0" class="noise" style="animation-delay:6.12s;animation-duration:7.4s"/>
    <rect x="616" y="70" width="10" height="10" rx="2" ry="2" fill="#ebedf0"/>
    <rect x="616" y="83" width="10" height="10" rx="2" ry="2" fill="#ebedf0"/>
    <rect x="616" y="96" width="10" height="10" rx="2" ry="2" fill="#ebedf0"/>
    <rect x="616" y="109" width="10" height="10" rx="2" ry="2" fill="#ebedf0"/>
    <rect x="616" y="122" width="10" height="10" rx="2" ry="2" fill="#ebedf0" class="noise" style="animation-delay:1.69s;animation-duration:7.6s"/>
    <rect x="629" y="44" width="10" height="10" rx="2" ry="2" fill="#ebedf0" class="noise" style="animation-delay:1.39s;animation-duration:5.3s"/>
    <rect x="629" y="57" width="10" height="10" rx="2" ry="2" fill="#216e39"/>
    <rect x="629" y="70" width="10" height="10" rx="2" ry="2" fill="#216e39"/>
    <rect x="629" y="83" width="10" height="10" rx="2" ry="2" fill="#216e39"/>
    <rect x="629" y="96" width="10" height="10" rx="2" ry="2" fill="#216e39"/>
    <rect x="629" y="109" width="10" height="10" rx="2" ry="2" fill="#216e39"/>
    <rect x="629" y="122" width="10" height="10" rx="2" ry="2" fill="#ebedf0" class="noise" style="animation-delay:3.6s;animation-duration:7.4s"/>
    <rect x="642" y="44" width="10" height="10" rx="2" ry="2" fill="#ebedf0"/>
    <rect x="642" y="57" width="10" height="10" rx="2" ry="2" fill="#ebedf0"/>
    <rect x="642" y="70" width="10" height="10" rx="2" ry="2" fill="#ebedf0"/>
    <rect x="642" y="83" width="10" height="10" rx="2" ry="2" fill="#216e39"/>
    <rect x="642" y="96" width="10" height="10" rx="2" ry="2" fill="#ebedf0"/>
    <rect x="642" y="109" width="10" height="10" rx="2" ry="2" fill="#ebedf0"/>
    <rect x="642" y="122" width="10" height="10" rx="2" ry="2" fill="#ebedf0"/>
    <rect x="655" y="44" width="10" height="10" rx="2" ry="2" fill="#ebedf0"/>
    <rect x="655" y="57" width="10" height="10" rx="2" ry="2" fill="#216e39"/>
    <rect x="655" y="70" width="10" height="10" rx="2" ry="2" fill="#216e39"/>
    <rect x="655" y="83" width="10" height="10" rx="2" ry="2" fill="#216e39"/>
    <rect x="655" y="96" width="10" height="10" rx="2" ry="2" fill="#216e39"/>
    <rect x="655" y="109" width="10" height="10" rx="2" ry="2" fill="#216e39"/>
    <rect x="655" y="122" width="10" height="10" rx="2" ry="2" fill="#ebedf0"/>
    <rect x="668" y="44" width="10" height="10" rx="2" ry="2" fill="#ebedf0"/>
    <rect x="668" y="57" width="10" height="10" rx="2" ry="2" fill="#ebedf0"/>
    <rect x="668" y="70" width="10" height="10" rx="2" ry="2" fill="#ebedf0"/>
    <rect x="668" y="83" width="10" height="10" rx="2" ry="2" fill="#ebedf0" class="noise" style="animation-delay:7.7s;animation-duration:8.3s"/>
    <rect x="668" y="96" width="10" height="10" rx="2" ry="2" fill="#ebedf0"/>
    <rect x="668" y="109" width="10" height="10" rx="2" ry="2" fill="#ebedf0"/>
    <rect x="668" y="122" width="10" height="10" rx="2" ry="2" fill="#ebedf0"/>
    <rect x="681" y="44" width="10" height="10" rx="2" ry="2" fill="#ebedf0"/>
    <rect x="681" y="57" width="10" height="10" rx="2" ry="2" fill="#ebedf0"/>
    <rect x="681" y="70" width="10" height="10" rx="2" ry="2" fill="#ebedf0"/>
    <rect x="681" y="83" width="10" height="10" rx="2" ry="2" fill="#ebedf0"/>
    <rect x="681" y="96" width="10" height="10" rx="2" ry="2" fill="#ebedf0"/>
    <rect x="681" y="109" width="10" height="10" rx="2" ry="2" fill="#ebedf0"/>
    <rect x="681" y="122" width="10" height="10" rx="2" ry="2" fill="#ebedf0"/>
    <rect x="694" y="44" width="10" height="10" rx="2" ry="2" fill="#ebedf0"/>
    <rect x="694" y="57" width="10" height="10" rx="2" ry="2" fill="#ebedf0"/>
    <rect x="694" y="70" width="10" height="10" rx="2" ry="2" fill="#ebedf0"/>
    <rect x="694" y="83" width="10" height="10" rx="2" ry="2" fill="#ebedf0"/>
    <rect x="694" y="96" width="10" height="10" rx="2" ry="2" fill="#ebedf0"/>
    <rect x="694" y="109" width="10" height="10" rx="2" ry="2" fill="#ebedf0" class="noise" style="animation-delay:7.79s;animation-duration:7.4s"/>
    <rect x="694" y="122" width="10" height="10" rx="2" ry="2" fill="#ebedf0" class="noise" style="animation-delay:1.27s;animation-duration:7.2s"/>
    <rect x="707" y="44" width="10" height="10" rx="2" ry="2" fill="#ebedf0"/>
    <rect x="707" y="57" width="10" height="10" rx="2" ry="2" fill="#ebedf0"/>
    <rect x="707" y="70" width="10" height="10" rx="2" ry="2" fill="#ebedf0"/>
    <rect x="707" y="83" width="10" height="10" rx="2" ry="2" fill="#ebedf0"/>
    <rect x="707" y="96" width="10" height="10" rx="2" ry="2" fill="#ebedf0"/>
    <rect x="707" y="109" width="10" height="10" rx="2" ry="2" fill="#ebedf0"/>
    <rect x="707" y="122" width="10" height="10" rx="2" ry="2" fill="#ebedf0"/>

  <text x="550" y="150" font-size="10" fill="#57606a">Less</text>
  <rect x="578" y="140" width="10" height="10" rx="2" fill="#ebedf0"/>
  <rect x="591" y="140" width="10" height="10" rx="2" fill="#9be9a8"/>
  <rect x="604" y="140" width="10" height="10" rx="2" fill="#40c463"/>
  <rect x="617" y="140" width="10" height="10" rx="2" fill="#30a14e"/>
  <rect x="630" y="140" width="10" height="10" rx="2" fill="#216e39"/>
  <text x="644" y="150" font-size="10" fill="#57606a">More</text>
</svg>
